<svg width="390" height="401" viewBox="0 0 390 401" fill="none" xmlns="http://www.w3.org/2000/svg">
<g clip-path="url(#clip0_2256_26407)">
<rect width="390" height="401" fill="#1D1D1E"/>
<g clip-path="url(#clip1_2256_26407)">
<path d="M40.4893 0.386719H39.7227V400H40.4893V0.386719Z" fill="#2E2E2E" fill-opacity="0.5"/>
<path d="M3.76661 0.386719H3V400H3.76661V0.386719Z" fill="#2E2E2E" fill-opacity="0.5"/>
<path d="M77.2197 0.386719H76.4531V400H77.2197V0.386719Z" fill="#2E2E2E" fill-opacity="0.5"/>
<path d="M113.942 0.386719H113.176V400H113.942V0.386719Z" fill="#2E2E2E" fill-opacity="0.5"/>
<path d="M150.665 0.386719H149.898V400H150.665V0.386719Z" fill="#2E2E2E" fill-opacity="0.5"/>
<path d="M187.388 0.386719H186.621V400H187.388V0.386719Z" fill="#2E2E2E" fill-opacity="0.5"/>
<path d="M224.118 0.386719H223.352V400H224.118V0.386719Z" fill="#2E2E2E" fill-opacity="0.5"/>
<path d="M260.839 0.386719H260.072V400H260.839V0.386719Z" fill="#2E2E2E" fill-opacity="0.5"/>
<path d="M297.563 0.386719H296.797V400H297.563V0.386719Z" fill="#2E2E2E" fill-opacity="0.5"/>
<path d="M334.286 0.386719H333.52V400H334.286V0.386719Z" fill="#2E2E2E" fill-opacity="0.5"/>
<path d="M371.015 0.386719H370.248V400H371.015V0.386719Z" fill="#2E2E2E" fill-opacity="0.5"/>
<path d="M664.431 0H3.38672V0.765926H664.431V0Z" fill="#2E2E2E" fill-opacity="0.5"/>
<path d="M664.431 398.861H3.38672V399.627H664.431V398.861Z" fill="#2E2E2E" fill-opacity="0.5"/>
<path d="M664.431 358.973H3.38672V359.739H664.431V358.973Z" fill="#2E2E2E" fill-opacity="0.5"/>
<path d="M664.431 319.086H3.38672V319.852H664.431V319.086Z" fill="#2E2E2E" fill-opacity="0.5"/>
<path d="M664.431 279.203H3.38672V279.969H664.431V279.203Z" fill="#2E2E2E" fill-opacity="0.5"/>
<path d="M664.431 239.316H3.38672V240.082H664.431V239.316Z" fill="#2E2E2E" fill-opacity="0.5"/>
<path d="M664.431 199.428H3.38672V200.194H664.431V199.428Z" fill="#2E2E2E" fill-opacity="0.5"/>
<path d="M664.431 159.547H3.38672V160.313H664.431V159.547Z" fill="#2E2E2E" fill-opacity="0.5"/>
<path d="M664.431 119.658H3.38672V120.424H664.431V119.658Z" fill="#2E2E2E" fill-opacity="0.5"/>
<path d="M664.431 79.7695H3.38672V80.5355H664.431V79.7695Z" fill="#2E2E2E" fill-opacity="0.5"/>
<path d="M664.431 39.8887H3.38672V40.6546H664.431V39.8887Z" fill="#2E2E2E" fill-opacity="0.5"/>
<path d="M58.071 44.1117C60.191 44.1117 61.9096 42.3911 61.9096 40.2687C61.9096 38.1463 60.191 36.4258 58.071 36.4258C55.951 36.4258 54.2324 38.1463 54.2324 40.2687C54.2324 42.3911 55.951 44.1117 58.071 44.1117Z" fill="#2E2E2E" fill-opacity="0.5"/>
<path d="M58.071 123.887C60.191 123.887 61.9096 122.167 61.9096 120.044C61.9096 117.922 60.191 116.201 58.071 116.201C55.951 116.201 54.2324 117.922 54.2324 120.044C54.2324 122.167 55.951 123.887 58.071 123.887Z" fill="#2E2E2E" fill-opacity="0.5"/>
<path d="M58.071 203.657C60.191 203.657 61.9096 201.936 61.9096 199.814C61.9096 197.691 60.191 195.971 58.071 195.971C55.951 195.971 54.2324 197.691 54.2324 199.814C54.2324 201.936 55.951 203.657 58.071 203.657Z" fill="#2E2E2E" fill-opacity="0.5"/>
<path d="M58.4695 283.426C60.5895 283.426 62.3081 281.706 62.3081 279.583C62.3081 277.461 60.5895 275.74 58.4695 275.74C56.3495 275.74 54.6309 277.461 54.6309 279.583C54.6309 281.706 56.3495 283.426 58.4695 283.426Z" fill="#2E2E2E" fill-opacity="0.5"/>
<path d="M58.071 363.202C60.191 363.202 61.9096 361.481 61.9096 359.359C61.9096 357.236 60.191 355.516 58.071 355.516C55.951 355.516 54.2324 357.236 54.2324 359.359C54.2324 361.481 55.951 363.202 58.071 363.202Z" fill="#2E2E2E" fill-opacity="0.5"/>
<path d="M131.923 83.9984C134.043 83.9984 135.761 82.2779 135.761 80.1554C135.761 78.033 134.043 76.3125 131.923 76.3125C129.803 76.3125 128.084 78.033 128.084 80.1554C128.084 82.2779 129.803 83.9984 131.923 83.9984Z" fill="#2E2E2E" fill-opacity="0.5"/>
<path d="M131.923 163.768C134.043 163.768 135.761 162.047 135.761 159.925C135.761 157.803 134.043 156.082 131.923 156.082C129.803 156.082 128.084 157.803 128.084 159.925C128.084 162.047 129.803 163.768 131.923 163.768Z" fill="#2E2E2E" fill-opacity="0.5"/>
<path d="M131.923 243.545C134.043 243.545 135.761 241.825 135.761 239.702C135.761 237.58 134.043 235.859 131.923 235.859C129.803 235.859 128.084 237.58 128.084 239.702C128.084 241.825 129.803 243.545 131.923 243.545Z" fill="#2E2E2E" fill-opacity="0.5"/>
<path d="M131.923 323.315C134.043 323.315 135.761 321.594 135.761 319.472C135.761 317.349 134.043 315.629 131.923 315.629C129.803 315.629 128.084 317.349 128.084 319.472C128.084 321.594 129.803 323.315 131.923 323.315Z" fill="#2E2E2E" fill-opacity="0.5"/>
<path d="M278.821 83.9984C280.941 83.9984 282.66 82.2779 282.66 80.1554C282.66 78.033 280.941 76.3125 278.821 76.3125C276.701 76.3125 274.982 78.033 274.982 80.1554C274.982 82.2779 276.701 83.9984 278.821 83.9984Z" fill="#2E2E2E" fill-opacity="0.5"/>
<path d="M278.821 163.768C280.941 163.768 282.66 162.047 282.66 159.925C282.66 157.803 280.941 156.082 278.821 156.082C276.701 156.082 274.982 157.803 274.982 159.925C274.982 162.047 276.701 163.768 278.821 163.768Z" fill="#2E2E2E" fill-opacity="0.5"/>
<path d="M278.821 243.545C280.941 243.545 282.66 241.825 282.66 239.702C282.66 237.58 280.941 235.859 278.821 235.859C276.701 235.859 274.982 237.58 274.982 239.702C274.982 241.825 276.701 243.545 278.821 243.545Z" fill="#2E2E2E" fill-opacity="0.5"/>
<path d="M278.821 323.315C280.941 323.315 282.66 321.594 282.66 319.472C282.66 317.349 280.941 315.629 278.821 315.629C276.701 315.629 274.982 317.349 274.982 319.472C274.982 321.594 276.701 323.315 278.821 323.315Z" fill="#2E2E2E" fill-opacity="0.5"/>
<path d="M205.368 363.202C207.488 363.202 209.206 361.481 209.206 359.359C209.206 357.236 207.488 355.516 205.368 355.516C203.248 355.516 201.529 357.236 201.529 359.359C201.529 361.481 203.248 363.202 205.368 363.202Z" fill="#2E2E2E" fill-opacity="0.5"/>
<path d="M205.368 283.426C207.488 283.426 209.206 281.706 209.206 279.583C209.206 277.461 207.488 275.74 205.368 275.74C203.248 275.74 201.529 277.461 201.529 279.583C201.529 281.706 203.248 283.426 205.368 283.426Z" fill="#2E2E2E" fill-opacity="0.5"/>
<path d="M205.368 203.657C207.488 203.657 209.206 201.936 209.206 199.814C209.206 197.691 207.488 195.971 205.368 195.971C203.248 195.971 201.529 197.691 201.529 199.814C201.529 201.936 203.248 203.657 205.368 203.657Z" fill="#2E2E2E" fill-opacity="0.5"/>
<path d="M205.368 123.887C207.488 123.887 209.206 122.167 209.206 120.044C209.206 117.922 207.488 116.201 205.368 116.201C203.248 116.201 201.529 117.922 201.529 120.044C201.529 122.167 203.248 123.887 205.368 123.887Z" fill="#2E2E2E" fill-opacity="0.5"/>
<path d="M205.368 44.1117C207.488 44.1117 209.206 42.3911 209.206 40.2687C209.206 38.1463 207.488 36.4258 205.368 36.4258C203.248 36.4258 201.529 38.1463 201.529 40.2687C201.529 42.3911 203.248 44.1117 205.368 44.1117Z" fill="#2E2E2E" fill-opacity="0.5"/>
<path d="M352.266 363.202C354.386 363.202 356.105 361.481 356.105 359.359C356.105 357.236 354.386 355.516 352.266 355.516C350.146 355.516 348.428 357.236 348.428 359.359C348.428 361.481 350.146 363.202 352.266 363.202Z" fill="#2E2E2E" fill-opacity="0.5"/>
<path d="M352.266 283.426C354.386 283.426 356.105 281.706 356.105 279.583C356.105 277.461 354.386 275.74 352.266 275.74C350.146 275.74 348.428 277.461 348.428 279.583C348.428 281.706 350.146 283.426 352.266 283.426Z" fill="#2E2E2E" fill-opacity="0.5"/>
<path d="M352.266 203.657C354.386 203.657 356.105 201.936 356.105 199.814C356.105 197.691 354.386 195.971 352.266 195.971C350.146 195.971 348.428 197.691 348.428 199.814C348.428 201.936 350.146 203.657 352.266 203.657Z" fill="#2E2E2E" fill-opacity="0.5"/>
<path d="M352.266 123.887C354.386 123.887 356.105 122.167 356.105 120.044C356.105 117.922 354.386 116.201 352.266 116.201C350.146 116.201 348.428 117.922 348.428 120.044C348.428 122.167 350.146 123.887 352.266 123.887Z" fill="#2E2E2E" fill-opacity="0.5"/>
<path d="M352.266 44.1117C354.386 44.1117 356.105 42.3911 356.105 40.2687C356.105 38.1463 354.386 36.4258 352.266 36.4258C350.146 36.4258 348.428 38.1463 348.428 40.2687C348.428 42.3911 350.146 44.1117 352.266 44.1117Z" fill="#2E2E2E" fill-opacity="0.5"/>
</g>
</g>
<defs>
<clipPath id="clip0_2256_26407">
<rect width="390" height="401" fill="white"/>
</clipPath>
<clipPath id="clip1_2256_26407">
<rect width="661.809" height="400" fill="white" transform="translate(3)"/>
</clipPath>
</defs>
</svg>
