<svg width="1334" height="312" viewBox="0 0 1334 312" fill="none" xmlns="http://www.w3.org/2000/svg">
<mask id="mask0_2199_13113" style="mask-type:alpha" maskUnits="userSpaceOnUse" x="0" y="0" width="1334" height="312">
<path d="M1334 0V311.3H0V151.362C0 149.687 0.676082 148.082 1.87688 146.901L50.4539 101.917H0V51.4629C0 49.7879 0.676082 48.1733 1.87688 47.0028L47.0734 1.79616C48.244 0.64581 49.8181 0 51.4629 0H101.917V50.4539L148.284 1.88699C149.454 0.686188 150.696 1.53973e-05 152.371 1.53973e-05L1334 0Z" fill="#575A5D"/>
</mask>
<g mask="url(#mask0_2199_13113)">
<g clip-path="url(#clip0_2199_13113)">
<rect width="1322" height="743.625" transform="translate(6 -216)" fill="#1D1D1E"/>
<g clip-path="url(#clip1_2199_13113)">
<path d="M83.6006 -241.23H82.0781V554.001H83.6006V-241.23Z" fill="#2E2E2E" fill-opacity="0.5"/>
<path d="M10.5225 -241.23H9V554.001H10.5225V-241.23Z" fill="#2E2E2E" fill-opacity="0.5"/>
<path d="M156.694 -241.23H155.172V554.001H156.694V-241.23Z" fill="#2E2E2E" fill-opacity="0.5"/>
<path d="M229.772 -241.23H228.25V554.001H229.772V-241.23Z" fill="#2E2E2E" fill-opacity="0.5"/>
<path d="M302.847 -241.23H301.324V554.001H302.847V-241.23Z" fill="#2E2E2E" fill-opacity="0.5"/>
<path d="M375.929 -241.23H374.406V554.001H375.929V-241.23Z" fill="#2E2E2E" fill-opacity="0.5"/>
<path d="M449.022 -241.23H447.5V554.001H449.022V-241.23Z" fill="#2E2E2E" fill-opacity="0.5"/>
<path d="M522.097 -241.23H520.574V554.001H522.097V-241.23Z" fill="#2E2E2E" fill-opacity="0.5"/>
<path d="M595.179 -241.23H593.656V554.001H595.179V-241.23Z" fill="#2E2E2E" fill-opacity="0.5"/>
<path d="M668.257 -241.23H666.734V554.001H668.257V-241.23Z" fill="#2E2E2E" fill-opacity="0.5"/>
<path d="M741.347 -241.23H739.824V554.001H741.347V-241.23Z" fill="#2E2E2E" fill-opacity="0.5"/>
<path d="M814.425 -241.23H812.902V554.001H814.425V-241.23Z" fill="#2E2E2E" fill-opacity="0.5"/>
<path d="M887.499 -241.23H885.977V554.001H887.499V-241.23Z" fill="#2E2E2E" fill-opacity="0.5"/>
<path d="M960.581 -241.23H959.059V554.001H960.581V-241.23Z" fill="#2E2E2E" fill-opacity="0.5"/>
<path d="M1033.67 -241.23H1032.15V554.001H1033.67V-241.23Z" fill="#2E2E2E" fill-opacity="0.5"/>
<path d="M1106.75 -241.23H1105.23V554.001H1106.75V-241.23Z" fill="#2E2E2E" fill-opacity="0.5"/>
<path d="M1252.92 -241.23H1251.4V554.001H1252.92V-241.23Z" fill="#2E2E2E" fill-opacity="0.5"/>
<path d="M1326 -241.23H1324.48V554.001H1326V-241.23Z" fill="#2E2E2E" fill-opacity="0.5"/>
<path d="M1179.83 -241.23H1178.3V554.001H1179.83V-241.23Z" fill="#2E2E2E" fill-opacity="0.5"/>
<path d="M1325.24 234.238H9.76562V235.762H1325.24V234.238Z" fill="#2E2E2E" fill-opacity="0.5"/>
<path d="M1325.24 154.859H9.76562V156.384H1325.24V154.859Z" fill="#2E2E2E" fill-opacity="0.5"/>
<path d="M1325.24 75.4961H9.76562V77.0203H1325.24V75.4961Z" fill="#2E2E2E" fill-opacity="0.5"/>
<path d="M118.592 4.53518C122.811 4.53518 126.231 1.1113 126.231 -3.11229C126.231 -7.33587 122.811 -10.7598 118.592 -10.7598C114.373 -10.7598 110.953 -7.33587 110.953 -3.11229C110.953 1.1113 114.373 4.53518 118.592 4.53518Z" fill="#2E2E2E" fill-opacity="0.5"/>
<path d="M118.592 163.275C122.811 163.275 126.231 159.852 126.231 155.628C126.231 151.404 122.811 147.98 118.592 147.98C114.373 147.98 110.953 151.404 110.953 155.628C110.953 159.852 114.373 163.275 118.592 163.275Z" fill="#2E2E2E" fill-opacity="0.5"/>
<path d="M119.385 322.018C123.604 322.018 127.024 318.594 127.024 314.37C127.024 310.147 123.604 306.723 119.385 306.723C115.166 306.723 111.746 310.147 111.746 314.37C111.746 318.594 115.166 322.018 119.385 322.018Z" fill="#2E2E2E" fill-opacity="0.5"/>
<path d="M265.553 83.8985C269.772 83.8985 273.192 80.4746 273.192 76.251C273.192 72.0274 269.772 68.6035 265.553 68.6035C261.334 68.6035 257.914 72.0274 257.914 76.251C257.914 80.4746 261.334 83.8985 265.553 83.8985Z" fill="#2E2E2E" fill-opacity="0.5"/>
<path d="M265.553 242.654C269.772 242.654 273.192 239.23 273.192 235.007C273.192 230.783 269.772 227.359 265.553 227.359C261.334 227.359 257.914 230.783 257.914 235.007C257.914 239.23 261.334 242.654 265.553 242.654Z" fill="#2E2E2E" fill-opacity="0.5"/>
<path d="M557.881 83.8985C562.1 83.8985 565.52 80.4746 565.52 76.251C565.52 72.0274 562.1 68.6035 557.881 68.6035C553.662 68.6035 550.242 72.0274 550.242 76.251C550.242 80.4746 553.662 83.8985 557.881 83.8985Z" fill="#2E2E2E" fill-opacity="0.5"/>
<path d="M557.881 242.654C562.1 242.654 565.52 239.23 565.52 235.007C565.52 230.783 562.1 227.359 557.881 227.359C553.662 227.359 550.242 230.783 550.242 235.007C550.242 239.23 553.662 242.654 557.881 242.654Z" fill="#2E2E2E" fill-opacity="0.5"/>
<path d="M850.209 83.8985C854.428 83.8985 857.848 80.4746 857.848 76.251C857.848 72.0274 854.428 68.6035 850.209 68.6035C845.99 68.6035 842.57 72.0274 842.57 76.251C842.57 80.4746 845.99 83.8985 850.209 83.8985Z" fill="#2E2E2E" fill-opacity="0.5"/>
<path d="M850.209 242.654C854.428 242.654 857.848 239.23 857.848 235.007C857.848 230.783 854.428 227.359 850.209 227.359C845.99 227.359 842.57 230.783 842.57 235.007C842.57 239.23 845.99 242.654 850.209 242.654Z" fill="#2E2E2E" fill-opacity="0.5"/>
<path d="M1142.54 83.8985C1146.76 83.8985 1150.18 80.4746 1150.18 76.251C1150.18 72.0274 1146.76 68.6035 1142.54 68.6035C1138.32 68.6035 1134.9 72.0274 1134.9 76.251C1134.9 80.4746 1138.32 83.8985 1142.54 83.8985Z" fill="#2E2E2E" fill-opacity="0.5"/>
<path d="M1142.54 242.654C1146.76 242.654 1150.18 239.23 1150.18 235.007C1150.18 230.783 1146.76 227.359 1142.54 227.359C1138.32 227.359 1134.9 230.783 1134.9 235.007C1134.9 239.23 1138.32 242.654 1142.54 242.654Z" fill="#2E2E2E" fill-opacity="0.5"/>
<path d="M411.709 322.018C415.928 322.018 419.348 318.594 419.348 314.37C419.348 310.147 415.928 306.723 411.709 306.723C407.49 306.723 404.07 310.147 404.07 314.37C404.07 318.594 407.49 322.018 411.709 322.018Z" fill="#2E2E2E" fill-opacity="0.5"/>
<path d="M411.709 163.275C415.928 163.275 419.348 159.852 419.348 155.628C419.348 151.404 415.928 147.98 411.709 147.98C407.49 147.98 404.07 151.404 404.07 155.628C404.07 159.852 407.49 163.275 411.709 163.275Z" fill="#2E2E2E" fill-opacity="0.5"/>
<path d="M411.709 4.53518C415.928 4.53518 419.348 1.1113 419.348 -3.11229C419.348 -7.33587 415.928 -10.7598 411.709 -10.7598C407.49 -10.7598 404.07 -7.33587 404.07 -3.11229C404.07 1.1113 407.49 4.53518 411.709 4.53518Z" fill="#2E2E2E" fill-opacity="0.5"/>
<path d="M704.037 322.018C708.256 322.018 711.676 318.594 711.676 314.37C711.676 310.147 708.256 306.723 704.037 306.723C699.818 306.723 696.398 310.147 696.398 314.37C696.398 318.594 699.818 322.018 704.037 322.018Z" fill="#2E2E2E" fill-opacity="0.5"/>
<path d="M704.037 163.275C708.256 163.275 711.676 159.852 711.676 155.628C711.676 151.404 708.256 147.98 704.037 147.98C699.818 147.98 696.398 151.404 696.398 155.628C696.398 159.852 699.818 163.275 704.037 163.275Z" fill="#2E2E2E" fill-opacity="0.5"/>
<path d="M704.037 4.53518C708.256 4.53518 711.676 1.1113 711.676 -3.11229C711.676 -7.33587 708.256 -10.7598 704.037 -10.7598C699.818 -10.7598 696.398 -7.33587 696.398 -3.11229C696.398 1.1113 699.818 4.53518 704.037 4.53518Z" fill="#2E2E2E" fill-opacity="0.5"/>
<path d="M996.365 322.018C1000.58 322.018 1004 318.594 1004 314.37C1004 310.147 1000.58 306.723 996.365 306.723C992.147 306.723 988.727 310.147 988.727 314.37C988.727 318.594 992.147 322.018 996.365 322.018Z" fill="#2E2E2E" fill-opacity="0.5"/>
<path d="M996.365 163.275C1000.58 163.275 1004 159.852 1004 155.628C1004 151.404 1000.58 147.98 996.365 147.98C992.147 147.98 988.727 151.404 988.727 155.628C988.727 159.852 992.147 163.275 996.365 163.275Z" fill="#2E2E2E" fill-opacity="0.5"/>
<path d="M996.365 4.53518C1000.58 4.53518 1004 1.1113 1004 -3.11229C1004 -7.33587 1000.58 -10.7598 996.365 -10.7598C992.147 -10.7598 988.727 -7.33587 988.727 -3.11229C988.727 1.1113 992.147 4.53518 996.365 4.53518Z" fill="#2E2E2E" fill-opacity="0.5"/>
<path d="M1288.69 322.018C1292.91 322.018 1296.33 318.594 1296.33 314.37C1296.33 310.147 1292.91 306.723 1288.69 306.723C1284.47 306.723 1281.05 310.147 1281.05 314.37C1281.05 318.594 1284.47 322.018 1288.69 322.018Z" fill="#2E2E2E" fill-opacity="0.5"/>
<path d="M1288.69 163.277C1292.91 163.277 1296.33 159.854 1296.33 155.63C1296.33 151.406 1292.91 147.982 1288.69 147.982C1284.47 147.982 1281.05 151.406 1281.05 155.63C1281.05 159.854 1284.47 163.277 1288.69 163.277Z" fill="#2E2E2E" fill-opacity="0.5"/>
<path d="M1288.69 4.53518C1292.91 4.53518 1296.33 1.1113 1296.33 -3.11229C1296.33 -7.33587 1292.91 -10.7598 1288.69 -10.7598C1284.47 -10.7598 1281.05 -7.33587 1281.05 -3.11229C1281.05 1.1113 1284.47 4.53518 1288.69 4.53518Z" fill="#2E2E2E" fill-opacity="0.5"/>
</g>
</g>
</g>
<defs>
<clipPath id="clip0_2199_13113">
<rect width="1322" height="743.625" fill="white" transform="translate(6 -216)"/>
</clipPath>
<clipPath id="clip1_2199_13113">
<rect width="1317" height="796" fill="white" transform="translate(9 -242)"/>
</clipPath>
</defs>
</svg>
