<svg width="390" height="429" viewBox="0 0 390 429" fill="none" xmlns="http://www.w3.org/2000/svg">
<g clip-path="url(#clip0_2256_26569)">
<rect width="390" height="429" fill="#CB1A36"/>
<rect width="390" height="429" fill="url(#paint0_linear_2256_26569)" fill-opacity="0.16"/>
<rect width="390" height="429" fill="black" fill-opacity="0.2"/>
<path d="M11.5305 -34.5176H10.5742V465H11.5305V-34.5176Z" fill="url(#paint1_radial_2256_26569)" fill-opacity="0.07"/>
<path d="M57.4524 -34.5176H56.4961V465H57.4524V-34.5176Z" fill="url(#paint2_radial_2256_26569)" fill-opacity="0.07"/>
<path d="M103.365 -34.5176H102.408V465H103.365V-34.5176Z" fill="url(#paint3_radial_2256_26569)" fill-opacity="0.07"/>
<path d="M149.279 -34.5176H148.322V465H149.279V-34.5176Z" fill="url(#paint4_radial_2256_26569)" fill-opacity="0.07"/>
<path d="M195.191 -34.5176H194.234V465H195.191V-34.5176Z" fill="url(#paint5_radial_2256_26569)" fill-opacity="0.07"/>
<path d="M241.113 -34.5176H240.156V465H241.113V-34.5176Z" fill="url(#paint6_radial_2256_26569)" fill-opacity="0.07"/>
<path d="M287.025 -34.5176H286.068V465H287.025V-34.5176Z" fill="url(#paint7_radial_2256_26569)" fill-opacity="0.07"/>
<path d="M332.939 -34.5176H331.982V465H332.939V-34.5176Z" fill="url(#paint8_radial_2256_26569)" fill-opacity="0.07"/>
<path d="M378.853 -34.5176H377.896V465H378.853V-34.5176Z" fill="url(#paint9_radial_2256_26569)" fill-opacity="0.07"/>
<path d="M607.959 413.717H-218.518V414.674H607.959V413.717Z" fill="url(#paint10_radial_2256_26569)" fill-opacity="0.07"/>
<path d="M607.959 363.855H-218.518V364.813H607.959V363.855Z" fill="url(#paint11_radial_2256_26569)" fill-opacity="0.07"/>
<path d="M607.959 314.004H-218.518V314.961H607.959V314.004Z" fill="url(#paint12_radial_2256_26569)" fill-opacity="0.07"/>
<path d="M607.959 264.145H-218.518V265.102H607.959V264.145Z" fill="url(#paint13_radial_2256_26569)" fill-opacity="0.07"/>
<path d="M607.959 214.285H-218.518V215.243H607.959V214.285Z" fill="url(#paint14_radial_2256_26569)" fill-opacity="0.07"/>
<path d="M607.959 164.432H-218.518V165.389H607.959V164.432Z" fill="url(#paint15_radial_2256_26569)" fill-opacity="0.07"/>
<path d="M607.959 114.572H-218.518V115.53H607.959V114.572Z" fill="url(#paint16_radial_2256_26569)" fill-opacity="0.07"/>
<path d="M607.959 64.7109H-218.518V65.6683H607.959V64.7109Z" fill="url(#paint17_radial_2256_26569)" fill-opacity="0.07"/>
<path d="M607.959 14.8594H-218.518V15.8168H607.959V14.8594Z" fill="url(#paint18_radial_2256_26569)" fill-opacity="0.07"/>
<path d="M125.848 69.998C128.499 69.998 130.647 67.8473 130.647 65.1943C130.647 62.5413 128.499 60.3906 125.848 60.3906C123.198 60.3906 121.049 62.5413 121.049 65.1943C121.049 67.8473 123.198 69.998 125.848 69.998Z" fill="url(#paint19_radial_2256_26569)" fill-opacity="0.07"/>
<path d="M125.848 169.709C128.499 169.709 130.647 167.558 130.647 164.905C130.647 162.252 128.499 160.102 125.848 160.102C123.198 160.102 121.049 162.252 121.049 164.905C121.049 167.558 123.198 169.709 125.848 169.709Z" fill="url(#paint20_radial_2256_26569)" fill-opacity="0.07"/>
<path d="M125.848 269.432C128.499 269.432 130.647 267.281 130.647 264.628C130.647 261.975 128.499 259.824 125.848 259.824C123.198 259.824 121.049 261.975 121.049 264.628C121.049 267.281 123.198 269.432 125.848 269.432Z" fill="url(#paint21_radial_2256_26569)" fill-opacity="0.07"/>
<path d="M125.848 369.143C128.499 369.143 130.647 366.992 130.647 364.339C130.647 361.686 128.499 359.535 125.848 359.535C123.198 359.535 121.049 361.686 121.049 364.339C121.049 366.992 123.198 369.143 125.848 369.143Z" fill="url(#paint22_radial_2256_26569)" fill-opacity="0.07"/>
<path d="M309.508 69.998C312.159 69.998 314.307 67.8473 314.307 65.1943C314.307 62.5413 312.159 60.3906 309.508 60.3906C306.858 60.3906 304.709 62.5413 304.709 65.1943C304.709 67.8473 306.858 69.998 309.508 69.998Z" fill="url(#paint23_radial_2256_26569)" fill-opacity="0.07"/>
<path d="M309.508 169.709C312.159 169.709 314.307 167.558 314.307 164.905C314.307 162.252 312.159 160.102 309.508 160.102C306.858 160.102 304.709 162.252 304.709 164.905C304.709 167.558 306.858 169.709 309.508 169.709Z" fill="url(#paint24_radial_2256_26569)" fill-opacity="0.07"/>
<path d="M309.508 269.432C312.159 269.432 314.307 267.281 314.307 264.628C314.307 261.975 312.159 259.824 309.508 259.824C306.858 259.824 304.709 261.975 304.709 264.628C304.709 267.281 306.858 269.432 309.508 269.432Z" fill="url(#paint25_radial_2256_26569)" fill-opacity="0.07"/>
<path d="M309.508 369.143C312.159 369.143 314.307 366.992 314.307 364.339C314.307 361.686 312.159 359.535 309.508 359.535C306.858 359.535 304.709 361.686 304.709 364.339C304.709 366.992 306.858 369.143 309.508 369.143Z" fill="url(#paint26_radial_2256_26569)" fill-opacity="0.07"/>
<path d="M34.0121 419.002C36.6627 419.002 38.8114 416.851 38.8114 414.198C38.8114 411.545 36.6627 409.395 34.0121 409.395C31.3616 409.395 29.2129 411.545 29.2129 414.198C29.2129 416.851 31.3616 419.002 34.0121 419.002Z" fill="url(#paint27_radial_2256_26569)" fill-opacity="0.07"/>
<path d="M34.0121 319.283C36.6627 319.283 38.8114 317.132 38.8114 314.479C38.8114 311.826 36.6627 309.676 34.0121 309.676C31.3616 309.676 29.2129 311.826 29.2129 314.479C29.2129 317.132 31.3616 319.283 34.0121 319.283Z" fill="url(#paint28_radial_2256_26569)" fill-opacity="0.07"/>
<path d="M34.0121 219.57C36.6627 219.57 38.8114 217.42 38.8114 214.767C38.8114 212.114 36.6627 209.963 34.0121 209.963C31.3616 209.963 29.2129 212.114 29.2129 214.767C29.2129 217.42 31.3616 219.57 34.0121 219.57Z" fill="url(#paint29_radial_2256_26569)" fill-opacity="0.07"/>
<path d="M34.0121 119.857C36.6627 119.857 38.8114 117.707 38.8114 115.054C38.8114 112.401 36.6627 110.25 34.0121 110.25C31.3616 110.25 29.2129 112.401 29.2129 115.054C29.2129 117.707 31.3616 119.857 34.0121 119.857Z" fill="url(#paint30_radial_2256_26569)" fill-opacity="0.07"/>
<path d="M34.0121 20.1386C36.6627 20.1386 38.8114 17.9879 38.8114 15.3349C38.8114 12.6819 36.6627 10.5312 34.0121 10.5312C31.3616 10.5312 29.2129 12.6819 29.2129 15.3349C29.2129 17.9879 31.3616 20.1386 34.0121 20.1386Z" fill="url(#paint31_radial_2256_26569)" fill-opacity="0.07"/>
<path d="M217.672 419.002C220.323 419.002 222.472 416.851 222.472 414.198C222.472 411.545 220.323 409.395 217.672 409.395C215.022 409.395 212.873 411.545 212.873 414.198C212.873 416.851 215.022 419.002 217.672 419.002Z" fill="url(#paint32_radial_2256_26569)" fill-opacity="0.07"/>
<path d="M217.672 319.283C220.323 319.283 222.472 317.132 222.472 314.479C222.472 311.826 220.323 309.676 217.672 309.676C215.022 309.676 212.873 311.826 212.873 314.479C212.873 317.132 215.022 319.283 217.672 319.283Z" fill="url(#paint33_radial_2256_26569)" fill-opacity="0.07"/>
<path d="M217.672 219.57C220.323 219.57 222.472 217.42 222.472 214.767C222.472 212.114 220.323 209.963 217.672 209.963C215.022 209.963 212.873 212.114 212.873 214.767C212.873 217.42 215.022 219.57 217.672 219.57Z" fill="url(#paint34_radial_2256_26569)" fill-opacity="0.07"/>
<path d="M217.672 119.857C220.323 119.857 222.472 117.707 222.472 115.054C222.472 112.401 220.323 110.25 217.672 110.25C215.022 110.25 212.873 112.401 212.873 115.054C212.873 117.707 215.022 119.857 217.672 119.857Z" fill="url(#paint35_radial_2256_26569)" fill-opacity="0.07"/>
<path d="M217.672 20.1386C220.323 20.1386 222.472 17.9879 222.472 15.3349C222.472 12.6819 220.323 10.5312 217.672 10.5312C215.022 10.5312 212.873 12.6819 212.873 15.3349C212.873 17.9879 215.022 20.1386 217.672 20.1386Z" fill="url(#paint36_radial_2256_26569)" fill-opacity="0.07"/>
</g>
<defs>
<linearGradient id="paint0_linear_2256_26569" x1="195" y1="0" x2="195" y2="429" gradientUnits="userSpaceOnUse">
<stop stop-color="white"/>
<stop offset="1" stop-color="white" stop-opacity="0"/>
</linearGradient>
<radialGradient id="paint1_radial_2256_26569" cx="0" cy="0" r="1" gradientUnits="userSpaceOnUse" gradientTransform="translate(11.0479 100.308) rotate(89.9998) scale(162.454 0.311015)">
<stop stop-color="white"/>
<stop offset="0.24" stop-color="#1D1D1E"/>
</radialGradient>
<radialGradient id="paint2_radial_2256_26569" cx="0" cy="0" r="1" gradientUnits="userSpaceOnUse" gradientTransform="translate(56.9698 100.308) rotate(89.9998) scale(162.454 0.311015)">
<stop stop-color="white"/>
<stop offset="0.24" stop-color="#1D1D1E"/>
</radialGradient>
<radialGradient id="paint3_radial_2256_26569" cx="0" cy="0" r="1" gradientUnits="userSpaceOnUse" gradientTransform="translate(102.882 100.308) rotate(89.9998) scale(162.454 0.311015)">
<stop stop-color="white"/>
<stop offset="0.24" stop-color="#1D1D1E"/>
</radialGradient>
<radialGradient id="paint4_radial_2256_26569" cx="0" cy="0" r="1" gradientUnits="userSpaceOnUse" gradientTransform="translate(148.796 100.308) rotate(89.9998) scale(162.454 0.311015)">
<stop stop-color="white"/>
<stop offset="0.24" stop-color="#1D1D1E"/>
</radialGradient>
<radialGradient id="paint5_radial_2256_26569" cx="0" cy="0" r="1" gradientUnits="userSpaceOnUse" gradientTransform="translate(194.708 100.308) rotate(89.9998) scale(162.454 0.311015)">
<stop stop-color="white"/>
<stop offset="0.24" stop-color="#1D1D1E"/>
</radialGradient>
<radialGradient id="paint6_radial_2256_26569" cx="0" cy="0" r="1" gradientUnits="userSpaceOnUse" gradientTransform="translate(240.63 100.308) rotate(89.9998) scale(162.454 0.311007)">
<stop stop-color="white"/>
<stop offset="0.24" stop-color="#1D1D1E"/>
</radialGradient>
<radialGradient id="paint7_radial_2256_26569" cx="0" cy="0" r="1" gradientUnits="userSpaceOnUse" gradientTransform="translate(286.542 100.308) rotate(89.9998) scale(162.454 0.311023)">
<stop stop-color="white"/>
<stop offset="0.24" stop-color="#1D1D1E"/>
</radialGradient>
<radialGradient id="paint8_radial_2256_26569" cx="0" cy="0" r="1" gradientUnits="userSpaceOnUse" gradientTransform="translate(332.456 100.308) rotate(89.9998) scale(162.454 0.311023)">
<stop stop-color="white"/>
<stop offset="0.24" stop-color="#1D1D1E"/>
</radialGradient>
<radialGradient id="paint9_radial_2256_26569" cx="0" cy="0" r="1" gradientUnits="userSpaceOnUse" gradientTransform="translate(378.37 100.308) rotate(89.9998) scale(162.454 0.311023)">
<stop stop-color="white"/>
<stop offset="0.24" stop-color="#1D1D1E"/>
</radialGradient>
<radialGradient id="paint10_radial_2256_26569" cx="0" cy="0" r="1" gradientUnits="userSpaceOnUse" gradientTransform="translate(190.854 413.975) rotate(29.4057) scale(0.634178 131.974)">
<stop stop-color="white"/>
<stop offset="0.24" stop-color="#1D1D1E"/>
</radialGradient>
<radialGradient id="paint11_radial_2256_26569" cx="0" cy="0" r="1" gradientUnits="userSpaceOnUse" gradientTransform="translate(190.854 364.114) rotate(29.4051) scale(0.634174 131.971)">
<stop stop-color="white"/>
<stop offset="0.24" stop-color="#1D1D1E"/>
</radialGradient>
<radialGradient id="paint12_radial_2256_26569" cx="0" cy="0" r="1" gradientUnits="userSpaceOnUse" gradientTransform="translate(190.854 314.262) rotate(29.4051) scale(0.634174 131.971)">
<stop stop-color="white"/>
<stop offset="0.24" stop-color="#1D1D1E"/>
</radialGradient>
<radialGradient id="paint13_radial_2256_26569" cx="0" cy="0" r="1" gradientUnits="userSpaceOnUse" gradientTransform="translate(190.854 264.403) rotate(29.4051) scale(0.634174 131.971)">
<stop stop-color="white"/>
<stop offset="0.24" stop-color="#1D1D1E"/>
</radialGradient>
<radialGradient id="paint14_radial_2256_26569" cx="0" cy="0" r="1" gradientUnits="userSpaceOnUse" gradientTransform="translate(190.854 214.544) rotate(29.4051) scale(0.634174 131.971)">
<stop stop-color="white"/>
<stop offset="0.24" stop-color="#1D1D1E"/>
</radialGradient>
<radialGradient id="paint15_radial_2256_26569" cx="0" cy="0" r="1" gradientUnits="userSpaceOnUse" gradientTransform="translate(190.854 164.69) rotate(29.4051) scale(0.634174 131.971)">
<stop stop-color="white"/>
<stop offset="0.24" stop-color="#1D1D1E"/>
</radialGradient>
<radialGradient id="paint16_radial_2256_26569" cx="0" cy="0" r="1" gradientUnits="userSpaceOnUse" gradientTransform="translate(190.854 114.831) rotate(29.4051) scale(0.634174 131.971)">
<stop stop-color="white"/>
<stop offset="0.24" stop-color="#1D1D1E"/>
</radialGradient>
<radialGradient id="paint17_radial_2256_26569" cx="0" cy="0" r="1" gradientUnits="userSpaceOnUse" gradientTransform="translate(190.854 64.9694) rotate(29.4053) scale(0.634175 131.972)">
<stop stop-color="white"/>
<stop offset="0.24" stop-color="#1D1D1E"/>
</radialGradient>
<radialGradient id="paint18_radial_2256_26569" cx="0" cy="0" r="1" gradientUnits="userSpaceOnUse" gradientTransform="translate(190.854 15.1178) rotate(29.4053) scale(0.634175 131.972)">
<stop stop-color="white"/>
<stop offset="0.24" stop-color="#1D1D1E"/>
</radialGradient>
<radialGradient id="paint19_radial_2256_26569" cx="0" cy="0" r="1" gradientUnits="userSpaceOnUse" gradientTransform="translate(125.803 62.9838) rotate(89.8823) scale(3.12453 3.12167)">
<stop stop-color="white"/>
<stop offset="0.24" stop-color="#1D1D1E"/>
</radialGradient>
<radialGradient id="paint20_radial_2256_26569" cx="0" cy="0" r="1" gradientUnits="userSpaceOnUse" gradientTransform="translate(125.803 162.695) rotate(89.8823) scale(3.12453 3.12167)">
<stop stop-color="white"/>
<stop offset="0.24" stop-color="#1D1D1E"/>
</radialGradient>
<radialGradient id="paint21_radial_2256_26569" cx="0" cy="0" r="1" gradientUnits="userSpaceOnUse" gradientTransform="translate(125.803 262.417) rotate(89.8823) scale(3.12453 3.12167)">
<stop stop-color="white"/>
<stop offset="0.24" stop-color="#1D1D1E"/>
</radialGradient>
<radialGradient id="paint22_radial_2256_26569" cx="0" cy="0" r="1" gradientUnits="userSpaceOnUse" gradientTransform="translate(125.803 362.128) rotate(89.8823) scale(3.12453 3.12167)">
<stop stop-color="white"/>
<stop offset="0.24" stop-color="#1D1D1E"/>
</radialGradient>
<radialGradient id="paint23_radial_2256_26569" cx="0" cy="0" r="1" gradientUnits="userSpaceOnUse" gradientTransform="translate(309.463 62.9838) rotate(89.8823) scale(3.12453 3.12166)">
<stop stop-color="white"/>
<stop offset="0.24" stop-color="#1D1D1E"/>
</radialGradient>
<radialGradient id="paint24_radial_2256_26569" cx="0" cy="0" r="1" gradientUnits="userSpaceOnUse" gradientTransform="translate(309.463 162.695) rotate(89.8823) scale(3.12453 3.12166)">
<stop stop-color="white"/>
<stop offset="0.24" stop-color="#1D1D1E"/>
</radialGradient>
<radialGradient id="paint25_radial_2256_26569" cx="0" cy="0" r="1" gradientUnits="userSpaceOnUse" gradientTransform="translate(309.463 262.417) rotate(89.8823) scale(3.12453 3.12166)">
<stop stop-color="white"/>
<stop offset="0.24" stop-color="#1D1D1E"/>
</radialGradient>
<radialGradient id="paint26_radial_2256_26569" cx="0" cy="0" r="1" gradientUnits="userSpaceOnUse" gradientTransform="translate(309.463 362.128) rotate(89.8823) scale(3.12453 3.12166)">
<stop stop-color="white"/>
<stop offset="0.24" stop-color="#1D1D1E"/>
</radialGradient>
<radialGradient id="paint27_radial_2256_26569" cx="0" cy="0" r="1" gradientUnits="userSpaceOnUse" gradientTransform="translate(33.9672 411.988) rotate(89.8823) scale(3.12454 3.12166)">
<stop stop-color="white"/>
<stop offset="0.24" stop-color="#1D1D1E"/>
</radialGradient>
<radialGradient id="paint28_radial_2256_26569" cx="0" cy="0" r="1" gradientUnits="userSpaceOnUse" gradientTransform="translate(33.9672 312.269) rotate(89.8823) scale(3.12452 3.12166)">
<stop stop-color="white"/>
<stop offset="0.24" stop-color="#1D1D1E"/>
</radialGradient>
<radialGradient id="paint29_radial_2256_26569" cx="0" cy="0" r="1" gradientUnits="userSpaceOnUse" gradientTransform="translate(33.9672 212.556) rotate(89.8823) scale(3.12453 3.12166)">
<stop stop-color="white"/>
<stop offset="0.24" stop-color="#1D1D1E"/>
</radialGradient>
<radialGradient id="paint30_radial_2256_26569" cx="0" cy="0" r="1" gradientUnits="userSpaceOnUse" gradientTransform="translate(33.9672 112.843) rotate(89.8823) scale(3.12453 3.12166)">
<stop stop-color="white"/>
<stop offset="0.24" stop-color="#1D1D1E"/>
</radialGradient>
<radialGradient id="paint31_radial_2256_26569" cx="0" cy="0" r="1" gradientUnits="userSpaceOnUse" gradientTransform="translate(33.9672 13.1244) rotate(89.8823) scale(3.12453 3.12166)">
<stop stop-color="white"/>
<stop offset="0.24" stop-color="#1D1D1E"/>
</radialGradient>
<radialGradient id="paint32_radial_2256_26569" cx="0" cy="0" r="1" gradientUnits="userSpaceOnUse" gradientTransform="translate(217.627 411.988) rotate(89.8823) scale(3.12454 3.12167)">
<stop stop-color="white"/>
<stop offset="0.24" stop-color="#1D1D1E"/>
</radialGradient>
<radialGradient id="paint33_radial_2256_26569" cx="0" cy="0" r="1" gradientUnits="userSpaceOnUse" gradientTransform="translate(217.627 312.269) rotate(89.8823) scale(3.12452 3.12167)">
<stop stop-color="white"/>
<stop offset="0.24" stop-color="#1D1D1E"/>
</radialGradient>
<radialGradient id="paint34_radial_2256_26569" cx="0" cy="0" r="1" gradientUnits="userSpaceOnUse" gradientTransform="translate(217.627 212.556) rotate(89.8823) scale(3.12453 3.12167)">
<stop stop-color="white"/>
<stop offset="0.24" stop-color="#1D1D1E"/>
</radialGradient>
<radialGradient id="paint35_radial_2256_26569" cx="0" cy="0" r="1" gradientUnits="userSpaceOnUse" gradientTransform="translate(217.627 112.843) rotate(89.8823) scale(3.12453 3.12167)">
<stop stop-color="white"/>
<stop offset="0.24" stop-color="#1D1D1E"/>
</radialGradient>
<radialGradient id="paint36_radial_2256_26569" cx="0" cy="0" r="1" gradientUnits="userSpaceOnUse" gradientTransform="translate(217.627 13.1244) rotate(89.8823) scale(3.12453 3.12167)">
<stop stop-color="white"/>
<stop offset="0.24" stop-color="#1D1D1E"/>
</radialGradient>
<clipPath id="clip0_2256_26569">
<rect width="390" height="429" fill="white"/>
</clipPath>
</defs>
</svg>
