<svg width="1512" height="447" viewBox="0 0 1512 447" fill="none" xmlns="http://www.w3.org/2000/svg">
<g clip-path="url(#clip0_2199_15144)">
<rect width="1512" height="447" fill="#CB1A36"/>
<rect width="1512" height="447" fill="url(#paint0_linear_2199_15144)" fill-opacity="0.16"/>
<rect width="1512" height="447" fill="black" fill-opacity="0.2"/>
<path d="M84.7407 0.873047H83.0117V904H84.7407V0.873047Z" fill="url(#paint1_radial_2199_15144)" fill-opacity="0.07"/>
<path d="M1.72901 0.873047H0V904H1.72901V0.873047Z" fill="url(#paint2_radial_2199_15144)" fill-opacity="0.07"/>
<path d="M167.768 0.873047H166.039V904H167.768V0.873047Z" fill="url(#paint3_radial_2199_15144)" fill-opacity="0.07"/>
<path d="M250.776 0.873047H249.047V904H250.776V0.873047Z" fill="url(#paint4_radial_2199_15144)" fill-opacity="0.07"/>
<path d="M333.788 0.873047H332.059V904H333.788V0.873047Z" fill="url(#paint5_radial_2199_15144)" fill-opacity="0.07"/>
<path d="M416.799 0.873047H415.07V904H416.799V0.873047Z" fill="url(#paint6_radial_2199_15144)" fill-opacity="0.07"/>
<path d="M499.823 0.873047H498.094V904H499.823V0.873047Z" fill="url(#paint7_radial_2199_15144)" fill-opacity="0.07"/>
<path d="M582.834 0.873047H581.105V904H582.834V0.873047Z" fill="url(#paint8_radial_2199_15144)" fill-opacity="0.07"/>
<path d="M665.846 0.873047H664.117V904H665.846V0.873047Z" fill="url(#paint9_radial_2199_15144)" fill-opacity="0.07"/>
<path d="M748.854 0.873047H747.125V904H748.854V0.873047Z" fill="url(#paint10_radial_2199_15144)" fill-opacity="0.07"/>
<path d="M831.885 0.873047H830.156V904H831.885V0.873047Z" fill="url(#paint11_radial_2199_15144)" fill-opacity="0.07"/>
<path d="M914.893 0.873047H913.164V904H914.893V0.873047Z" fill="url(#paint12_radial_2199_15144)" fill-opacity="0.07"/>
<path d="M997.905 0.873047H996.176V904H997.905V0.873047Z" fill="url(#paint13_radial_2199_15144)" fill-opacity="0.07"/>
<path d="M1080.92 0.873047H1079.19V904H1080.92V0.873047Z" fill="url(#paint14_radial_2199_15144)" fill-opacity="0.07"/>
<path d="M1163.94 0.873047H1162.21V904H1163.94V0.873047Z" fill="url(#paint15_radial_2199_15144)" fill-opacity="0.07"/>
<path d="M1246.95 0.873047H1245.22V904H1246.95V0.873047Z" fill="url(#paint16_radial_2199_15144)" fill-opacity="0.07"/>
<path d="M1412.99 0.873047H1411.26V904H1412.99V0.873047Z" fill="url(#paint17_radial_2199_15144)" fill-opacity="0.07"/>
<path d="M1496 0.873047H1494.27V904H1496V0.873047Z" fill="url(#paint18_radial_2199_15144)" fill-opacity="0.07"/>
<path d="M1329.96 0.873047H1328.23V904H1329.96V0.873047Z" fill="url(#paint19_radial_2199_15144)" fill-opacity="0.07"/>
<path d="M1495.15 0H0.875V1.73099H1495.15V0Z" fill="url(#paint20_radial_2199_15144)" fill-opacity="0.07"/>
<path d="M1495.15 360.574H0.875V362.305H1495.15V360.574Z" fill="url(#paint21_radial_2199_15144)" fill-opacity="0.07"/>
<path d="M1495.14 270.426H0.871094V272.157H1495.14V270.426Z" fill="url(#paint22_radial_2199_15144)" fill-opacity="0.07"/>
<path d="M1495.15 180.279H0.875V182.01H1495.15V180.279Z" fill="url(#paint23_radial_2199_15144)" fill-opacity="0.07"/>
<path d="M1495.14 90.1484H0.871094V91.8794H1495.14V90.1484Z" fill="url(#paint24_radial_2199_15144)" fill-opacity="0.07"/>
<path d="M124.486 99.6905C129.278 99.6905 133.163 95.802 133.163 91.0054C133.163 86.2088 129.278 82.3203 124.486 82.3203C119.693 82.3203 115.809 86.2088 115.809 91.0054C115.809 95.802 119.693 99.6905 124.486 99.6905Z" fill="url(#paint25_radial_2199_15144)" fill-opacity="0.07"/>
<path d="M124.486 279.983C129.278 279.983 133.163 276.095 133.163 271.298C133.163 266.502 129.278 262.613 124.486 262.613C119.693 262.613 115.809 266.502 115.809 271.298C115.809 276.095 119.693 279.983 124.486 279.983Z" fill="url(#paint26_radial_2199_15144)" fill-opacity="0.07"/>
<path d="M124.486 460.265C129.278 460.265 133.163 456.376 133.163 451.58C133.163 446.783 129.278 442.895 124.486 442.895C119.693 442.895 115.809 446.783 115.809 451.58C115.809 456.376 119.693 460.265 124.486 460.265Z" fill="url(#paint27_radial_2199_15144)" fill-opacity="0.07"/>
<path d="M291.427 189.837C296.219 189.837 300.104 185.948 300.104 181.152C300.104 176.355 296.219 172.467 291.427 172.467C286.635 172.467 282.75 176.355 282.75 181.152C282.75 185.948 286.635 189.837 291.427 189.837Z" fill="url(#paint28_radial_2199_15144)" fill-opacity="0.07"/>
<path d="M291.427 370.116C296.219 370.116 300.104 366.228 300.104 361.431C300.104 356.635 296.219 352.746 291.427 352.746C286.635 352.746 282.75 356.635 282.75 361.431C282.75 366.228 286.635 370.116 291.427 370.116Z" fill="url(#paint29_radial_2199_15144)" fill-opacity="0.07"/>
<path d="M623.482 189.837C628.274 189.837 632.159 185.948 632.159 181.152C632.159 176.355 628.274 172.467 623.482 172.467C618.69 172.467 614.805 176.355 614.805 181.152C614.805 185.948 618.69 189.837 623.482 189.837Z" fill="url(#paint30_radial_2199_15144)" fill-opacity="0.07"/>
<path d="M623.482 370.116C628.274 370.116 632.159 366.228 632.159 361.431C632.159 356.635 628.274 352.746 623.482 352.746C618.69 352.746 614.805 356.635 614.805 361.431C614.805 366.228 618.69 370.116 623.482 370.116Z" fill="url(#paint31_radial_2199_15144)" fill-opacity="0.07"/>
<path d="M955.544 189.837C960.336 189.837 964.221 185.948 964.221 181.152C964.221 176.355 960.336 172.467 955.544 172.467C950.752 172.467 946.867 176.355 946.867 181.152C946.867 185.948 950.752 189.837 955.544 189.837Z" fill="url(#paint32_radial_2199_15144)" fill-opacity="0.07"/>
<path d="M955.544 370.116C960.336 370.116 964.221 366.228 964.221 361.431C964.221 356.635 960.336 352.746 955.544 352.746C950.752 352.746 946.867 356.635 946.867 361.431C946.867 366.228 950.752 370.116 955.544 370.116Z" fill="url(#paint33_radial_2199_15144)" fill-opacity="0.07"/>
<path d="M1287.6 189.837C1292.39 189.837 1296.28 185.948 1296.28 181.152C1296.28 176.355 1292.39 172.467 1287.6 172.467C1282.81 172.467 1278.92 176.355 1278.92 181.152C1278.92 185.948 1282.81 189.837 1287.6 189.837Z" fill="url(#paint34_radial_2199_15144)" fill-opacity="0.07"/>
<path d="M1287.6 370.116C1292.39 370.116 1296.28 366.228 1296.28 361.431C1296.28 356.635 1292.39 352.746 1287.6 352.746C1282.81 352.746 1278.92 356.635 1278.92 361.431C1278.92 366.228 1282.81 370.116 1287.6 370.116Z" fill="url(#paint35_radial_2199_15144)" fill-opacity="0.07"/>
<path d="M457.447 460.265C462.239 460.265 466.124 456.376 466.124 451.58C466.124 446.783 462.239 442.895 457.447 442.895C452.654 442.895 448.77 446.783 448.77 451.58C448.77 456.376 452.654 460.265 457.447 460.265Z" fill="url(#paint36_radial_2199_15144)" fill-opacity="0.07"/>
<path d="M457.447 279.983C462.239 279.983 466.124 276.095 466.124 271.298C466.124 266.502 462.239 262.613 457.447 262.613C452.654 262.613 448.77 266.502 448.77 271.298C448.77 276.095 452.654 279.983 457.447 279.983Z" fill="url(#paint37_radial_2199_15144)" fill-opacity="0.07"/>
<path d="M457.447 99.6905C462.239 99.6905 466.124 95.802 466.124 91.0054C466.124 86.2088 462.239 82.3203 457.447 82.3203C452.654 82.3203 448.77 86.2088 448.77 91.0054C448.77 95.802 452.654 99.6905 457.447 99.6905Z" fill="url(#paint38_radial_2199_15144)" fill-opacity="0.07"/>
<path d="M789.505 460.265C794.297 460.265 798.182 456.376 798.182 451.58C798.182 446.783 794.297 442.895 789.505 442.895C784.713 442.895 780.828 446.783 780.828 451.58C780.828 456.376 784.713 460.265 789.505 460.265Z" fill="url(#paint39_radial_2199_15144)" fill-opacity="0.07"/>
<path d="M789.505 279.983C794.297 279.983 798.182 276.095 798.182 271.298C798.182 266.502 794.297 262.613 789.505 262.613C784.713 262.613 780.828 266.502 780.828 271.298C780.828 276.095 784.713 279.983 789.505 279.983Z" fill="url(#paint40_radial_2199_15144)" fill-opacity="0.07"/>
<path d="M789.505 99.6905C794.297 99.6905 798.182 95.802 798.182 91.0054C798.182 86.2088 794.297 82.3203 789.505 82.3203C784.713 82.3203 780.828 86.2088 780.828 91.0054C780.828 95.802 784.713 99.6905 789.505 99.6905Z" fill="url(#paint41_radial_2199_15144)" fill-opacity="0.07"/>
<path d="M1121.56 460.263C1126.36 460.263 1130.24 456.374 1130.24 451.578C1130.24 446.781 1126.36 442.893 1121.56 442.893C1116.77 442.893 1112.89 446.781 1112.89 451.578C1112.89 456.374 1116.77 460.263 1121.56 460.263Z" fill="url(#paint42_radial_2199_15144)" fill-opacity="0.07"/>
<path d="M1121.56 279.983C1126.36 279.983 1130.24 276.095 1130.24 271.298C1130.24 266.502 1126.36 262.613 1121.56 262.613C1116.77 262.613 1112.89 266.502 1112.89 271.298C1112.89 276.095 1116.77 279.983 1121.56 279.983Z" fill="url(#paint43_radial_2199_15144)" fill-opacity="0.07"/>
<path d="M1121.56 99.6905C1126.36 99.6905 1130.24 95.802 1130.24 91.0054C1130.24 86.2088 1126.36 82.3203 1121.56 82.3203C1116.77 82.3203 1112.89 86.2088 1112.89 91.0054C1112.89 95.802 1116.77 99.6905 1121.56 99.6905Z" fill="url(#paint44_radial_2199_15144)" fill-opacity="0.07"/>
<path d="M1453.62 460.263C1458.41 460.263 1462.3 456.374 1462.3 451.578C1462.3 446.781 1458.41 442.893 1453.62 442.893C1448.83 442.893 1444.95 446.781 1444.95 451.578C1444.95 456.374 1448.83 460.263 1453.62 460.263Z" fill="url(#paint45_radial_2199_15144)" fill-opacity="0.07"/>
<path d="M1453.62 279.983C1458.41 279.983 1462.3 276.095 1462.3 271.298C1462.3 266.502 1458.41 262.613 1453.62 262.613C1448.83 262.613 1444.95 266.502 1444.95 271.298C1444.95 276.095 1448.83 279.983 1453.62 279.983Z" fill="url(#paint46_radial_2199_15144)" fill-opacity="0.07"/>
<path d="M1453.62 99.6905C1458.41 99.6905 1462.3 95.802 1462.3 91.0054C1462.3 86.2088 1458.41 82.3203 1453.62 82.3203C1448.83 82.3203 1444.95 86.2088 1444.95 91.0054C1444.95 95.802 1448.83 99.6905 1453.62 99.6905Z" fill="url(#paint47_radial_2199_15144)" fill-opacity="0.07"/>
</g>
<defs>
<linearGradient id="paint0_linear_2199_15144" x1="756" y1="0" x2="756" y2="447" gradientUnits="userSpaceOnUse">
<stop stop-color="white"/>
<stop offset="1" stop-color="white" stop-opacity="0"/>
</linearGradient>
<radialGradient id="paint1_radial_2199_15144" cx="0" cy="0" r="1" gradientUnits="userSpaceOnUse" gradientTransform="translate(83.8681 244.637) rotate(89.9998) scale(293.716 0.562317)">
<stop stop-color="white"/>
<stop offset="0.24" stop-color="#1D1D1E"/>
</radialGradient>
<radialGradient id="paint2_radial_2199_15144" cx="0" cy="0" r="1" gradientUnits="userSpaceOnUse" gradientTransform="translate(0.856417 244.637) rotate(89.9998) scale(293.716 0.562318)">
<stop stop-color="white"/>
<stop offset="0.24" stop-color="#1D1D1E"/>
</radialGradient>
<radialGradient id="paint3_radial_2199_15144" cx="0" cy="0" r="1" gradientUnits="userSpaceOnUse" gradientTransform="translate(166.895 244.637) rotate(89.9998) scale(293.716 0.562315)">
<stop stop-color="white"/>
<stop offset="0.24" stop-color="#1D1D1E"/>
</radialGradient>
<radialGradient id="paint4_radial_2199_15144" cx="0" cy="0" r="1" gradientUnits="userSpaceOnUse" gradientTransform="translate(249.903 244.637) rotate(89.9998) scale(293.716 0.562315)">
<stop stop-color="white"/>
<stop offset="0.24" stop-color="#1D1D1E"/>
</radialGradient>
<radialGradient id="paint5_radial_2199_15144" cx="0" cy="0" r="1" gradientUnits="userSpaceOnUse" gradientTransform="translate(332.915 244.637) rotate(89.9998) scale(293.716 0.562323)">
<stop stop-color="white"/>
<stop offset="0.24" stop-color="#1D1D1E"/>
</radialGradient>
<radialGradient id="paint6_radial_2199_15144" cx="0" cy="0" r="1" gradientUnits="userSpaceOnUse" gradientTransform="translate(415.927 244.637) rotate(89.9998) scale(293.716 0.562315)">
<stop stop-color="white"/>
<stop offset="0.24" stop-color="#1D1D1E"/>
</radialGradient>
<radialGradient id="paint7_radial_2199_15144" cx="0" cy="0" r="1" gradientUnits="userSpaceOnUse" gradientTransform="translate(498.95 244.637) rotate(89.9998) scale(293.716 0.562315)">
<stop stop-color="white"/>
<stop offset="0.24" stop-color="#1D1D1E"/>
</radialGradient>
<radialGradient id="paint8_radial_2199_15144" cx="0" cy="0" r="1" gradientUnits="userSpaceOnUse" gradientTransform="translate(581.962 244.637) rotate(89.9998) scale(293.716 0.562315)">
<stop stop-color="white"/>
<stop offset="0.24" stop-color="#1D1D1E"/>
</radialGradient>
<radialGradient id="paint9_radial_2199_15144" cx="0" cy="0" r="1" gradientUnits="userSpaceOnUse" gradientTransform="translate(664.974 244.637) rotate(89.9998) scale(293.716 0.562315)">
<stop stop-color="white"/>
<stop offset="0.24" stop-color="#1D1D1E"/>
</radialGradient>
<radialGradient id="paint10_radial_2199_15144" cx="0" cy="0" r="1" gradientUnits="userSpaceOnUse" gradientTransform="translate(747.981 244.637) rotate(89.9998) scale(293.716 0.562315)">
<stop stop-color="white"/>
<stop offset="0.24" stop-color="#1D1D1E"/>
</radialGradient>
<radialGradient id="paint11_radial_2199_15144" cx="0" cy="0" r="1" gradientUnits="userSpaceOnUse" gradientTransform="translate(831.013 244.637) rotate(89.9998) scale(293.716 0.562301)">
<stop stop-color="white"/>
<stop offset="0.24" stop-color="#1D1D1E"/>
</radialGradient>
<radialGradient id="paint12_radial_2199_15144" cx="0" cy="0" r="1" gradientUnits="userSpaceOnUse" gradientTransform="translate(914.02 244.637) rotate(89.9998) scale(293.716 0.56233)">
<stop stop-color="white"/>
<stop offset="0.24" stop-color="#1D1D1E"/>
</radialGradient>
<radialGradient id="paint13_radial_2199_15144" cx="0" cy="0" r="1" gradientUnits="userSpaceOnUse" gradientTransform="translate(997.032 244.637) rotate(89.9998) scale(293.716 0.56233)">
<stop stop-color="white"/>
<stop offset="0.24" stop-color="#1D1D1E"/>
</radialGradient>
<radialGradient id="paint14_radial_2199_15144" cx="0" cy="0" r="1" gradientUnits="userSpaceOnUse" gradientTransform="translate(1080.04 244.637) rotate(89.9998) scale(293.716 0.56233)">
<stop stop-color="white"/>
<stop offset="0.24" stop-color="#1D1D1E"/>
</radialGradient>
<radialGradient id="paint15_radial_2199_15144" cx="0" cy="0" r="1" gradientUnits="userSpaceOnUse" gradientTransform="translate(1163.07 244.637) rotate(89.9998) scale(293.716 0.562301)">
<stop stop-color="white"/>
<stop offset="0.24" stop-color="#1D1D1E"/>
</radialGradient>
<radialGradient id="paint16_radial_2199_15144" cx="0" cy="0" r="1" gradientUnits="userSpaceOnUse" gradientTransform="translate(1246.08 244.637) rotate(89.9998) scale(293.716 0.56233)">
<stop stop-color="white"/>
<stop offset="0.24" stop-color="#1D1D1E"/>
</radialGradient>
<radialGradient id="paint17_radial_2199_15144" cx="0" cy="0" r="1" gradientUnits="userSpaceOnUse" gradientTransform="translate(1412.11 244.637) rotate(89.9998) scale(293.716 0.562301)">
<stop stop-color="white"/>
<stop offset="0.24" stop-color="#1D1D1E"/>
</radialGradient>
<radialGradient id="paint18_radial_2199_15144" cx="0" cy="0" r="1" gradientUnits="userSpaceOnUse" gradientTransform="translate(1495.13 244.637) rotate(89.9998) scale(293.716 0.562301)">
<stop stop-color="white"/>
<stop offset="0.24" stop-color="#1D1D1E"/>
</radialGradient>
<radialGradient id="paint19_radial_2199_15144" cx="0" cy="0" r="1" gradientUnits="userSpaceOnUse" gradientTransform="translate(1329.09 244.637) rotate(89.9998) scale(293.716 0.56233)">
<stop stop-color="white"/>
<stop offset="0.24" stop-color="#1D1D1E"/>
</radialGradient>
<radialGradient id="paint20_radial_2199_15144" cx="0" cy="0" r="1" gradientUnits="userSpaceOnUse" gradientTransform="translate(741.019 0.467215) rotate(29.4052) scale(1.14659 238.605)">
<stop stop-color="white"/>
<stop offset="0.24" stop-color="#1D1D1E"/>
</radialGradient>
<radialGradient id="paint21_radial_2199_15144" cx="0" cy="0" r="1" gradientUnits="userSpaceOnUse" gradientTransform="translate(741.019 361.041) rotate(29.4051) scale(1.14659 238.604)">
<stop stop-color="white"/>
<stop offset="0.24" stop-color="#1D1D1E"/>
</radialGradient>
<radialGradient id="paint22_radial_2199_15144" cx="0" cy="0" r="1" gradientUnits="userSpaceOnUse" gradientTransform="translate(741.015 270.893) rotate(29.4051) scale(1.14659 238.604)">
<stop stop-color="white"/>
<stop offset="0.24" stop-color="#1D1D1E"/>
</radialGradient>
<radialGradient id="paint23_radial_2199_15144" cx="0" cy="0" r="1" gradientUnits="userSpaceOnUse" gradientTransform="translate(741.019 180.747) rotate(29.4053) scale(1.14659 238.605)">
<stop stop-color="white"/>
<stop offset="0.24" stop-color="#1D1D1E"/>
</radialGradient>
<radialGradient id="paint24_radial_2199_15144" cx="0" cy="0" r="1" gradientUnits="userSpaceOnUse" gradientTransform="translate(741.015 90.6157) rotate(29.4053) scale(1.14659 238.605)">
<stop stop-color="white"/>
<stop offset="0.24" stop-color="#1D1D1E"/>
</radialGradient>
<radialGradient id="paint25_radial_2199_15144" cx="0" cy="0" r="1" gradientUnits="userSpaceOnUse" gradientTransform="translate(124.404 87.0087) rotate(89.8823) scale(5.64915 5.64397)">
<stop stop-color="white"/>
<stop offset="0.24" stop-color="#1D1D1E"/>
</radialGradient>
<radialGradient id="paint26_radial_2199_15144" cx="0" cy="0" r="1" gradientUnits="userSpaceOnUse" gradientTransform="translate(124.404 267.302) rotate(89.8823) scale(5.64915 5.64397)">
<stop stop-color="white"/>
<stop offset="0.24" stop-color="#1D1D1E"/>
</radialGradient>
<radialGradient id="paint27_radial_2199_15144" cx="0" cy="0" r="1" gradientUnits="userSpaceOnUse" gradientTransform="translate(124.404 447.583) rotate(89.8823) scale(5.64915 5.64397)">
<stop stop-color="white"/>
<stop offset="0.24" stop-color="#1D1D1E"/>
</radialGradient>
<radialGradient id="paint28_radial_2199_15144" cx="0" cy="0" r="1" gradientUnits="userSpaceOnUse" gradientTransform="translate(291.346 177.155) rotate(89.8823) scale(5.64915 5.64397)">
<stop stop-color="white"/>
<stop offset="0.24" stop-color="#1D1D1E"/>
</radialGradient>
<radialGradient id="paint29_radial_2199_15144" cx="0" cy="0" r="1" gradientUnits="userSpaceOnUse" gradientTransform="translate(291.346 357.434) rotate(89.8823) scale(5.64915 5.64397)">
<stop stop-color="white"/>
<stop offset="0.24" stop-color="#1D1D1E"/>
</radialGradient>
<radialGradient id="paint30_radial_2199_15144" cx="0" cy="0" r="1" gradientUnits="userSpaceOnUse" gradientTransform="translate(623.401 177.155) rotate(89.8823) scale(5.64915 5.64397)">
<stop stop-color="white"/>
<stop offset="0.24" stop-color="#1D1D1E"/>
</radialGradient>
<radialGradient id="paint31_radial_2199_15144" cx="0" cy="0" r="1" gradientUnits="userSpaceOnUse" gradientTransform="translate(623.401 357.434) rotate(89.8823) scale(5.64915 5.64397)">
<stop stop-color="white"/>
<stop offset="0.24" stop-color="#1D1D1E"/>
</radialGradient>
<radialGradient id="paint32_radial_2199_15144" cx="0" cy="0" r="1" gradientUnits="userSpaceOnUse" gradientTransform="translate(955.463 177.155) rotate(89.8823) scale(5.64915 5.64396)">
<stop stop-color="white"/>
<stop offset="0.24" stop-color="#1D1D1E"/>
</radialGradient>
<radialGradient id="paint33_radial_2199_15144" cx="0" cy="0" r="1" gradientUnits="userSpaceOnUse" gradientTransform="translate(955.463 357.434) rotate(89.8823) scale(5.64915 5.64396)">
<stop stop-color="white"/>
<stop offset="0.24" stop-color="#1D1D1E"/>
</radialGradient>
<radialGradient id="paint34_radial_2199_15144" cx="0" cy="0" r="1" gradientUnits="userSpaceOnUse" gradientTransform="translate(1287.52 177.155) rotate(89.8823) scale(5.64915 5.64396)">
<stop stop-color="white"/>
<stop offset="0.24" stop-color="#1D1D1E"/>
</radialGradient>
<radialGradient id="paint35_radial_2199_15144" cx="0" cy="0" r="1" gradientUnits="userSpaceOnUse" gradientTransform="translate(1287.52 357.434) rotate(89.8823) scale(5.64915 5.64396)">
<stop stop-color="white"/>
<stop offset="0.24" stop-color="#1D1D1E"/>
</radialGradient>
<radialGradient id="paint36_radial_2199_15144" cx="0" cy="0" r="1" gradientUnits="userSpaceOnUse" gradientTransform="translate(457.365 447.583) rotate(89.8823) scale(5.64915 5.64396)">
<stop stop-color="white"/>
<stop offset="0.24" stop-color="#1D1D1E"/>
</radialGradient>
<radialGradient id="paint37_radial_2199_15144" cx="0" cy="0" r="1" gradientUnits="userSpaceOnUse" gradientTransform="translate(457.365 267.302) rotate(89.8823) scale(5.64915 5.64396)">
<stop stop-color="white"/>
<stop offset="0.24" stop-color="#1D1D1E"/>
</radialGradient>
<radialGradient id="paint38_radial_2199_15144" cx="0" cy="0" r="1" gradientUnits="userSpaceOnUse" gradientTransform="translate(457.365 87.0087) rotate(89.8823) scale(5.64915 5.64396)">
<stop stop-color="white"/>
<stop offset="0.24" stop-color="#1D1D1E"/>
</radialGradient>
<radialGradient id="paint39_radial_2199_15144" cx="0" cy="0" r="1" gradientUnits="userSpaceOnUse" gradientTransform="translate(789.424 447.583) rotate(89.8823) scale(5.64915 5.64399)">
<stop stop-color="white"/>
<stop offset="0.24" stop-color="#1D1D1E"/>
</radialGradient>
<radialGradient id="paint40_radial_2199_15144" cx="0" cy="0" r="1" gradientUnits="userSpaceOnUse" gradientTransform="translate(789.424 267.302) rotate(89.8823) scale(5.64915 5.64399)">
<stop stop-color="white"/>
<stop offset="0.24" stop-color="#1D1D1E"/>
</radialGradient>
<radialGradient id="paint41_radial_2199_15144" cx="0" cy="0" r="1" gradientUnits="userSpaceOnUse" gradientTransform="translate(789.424 87.0087) rotate(89.8823) scale(5.64915 5.64399)">
<stop stop-color="white"/>
<stop offset="0.24" stop-color="#1D1D1E"/>
</radialGradient>
<radialGradient id="paint42_radial_2199_15144" cx="0" cy="0" r="1" gradientUnits="userSpaceOnUse" gradientTransform="translate(1121.48 447.581) rotate(89.8823) scale(5.64915 5.64399)">
<stop stop-color="white"/>
<stop offset="0.24" stop-color="#1D1D1E"/>
</radialGradient>
<radialGradient id="paint43_radial_2199_15144" cx="0" cy="0" r="1" gradientUnits="userSpaceOnUse" gradientTransform="translate(1121.48 267.302) rotate(89.8823) scale(5.64915 5.64399)">
<stop stop-color="white"/>
<stop offset="0.24" stop-color="#1D1D1E"/>
</radialGradient>
<radialGradient id="paint44_radial_2199_15144" cx="0" cy="0" r="1" gradientUnits="userSpaceOnUse" gradientTransform="translate(1121.48 87.0087) rotate(89.8823) scale(5.64915 5.64399)">
<stop stop-color="white"/>
<stop offset="0.24" stop-color="#1D1D1E"/>
</radialGradient>
<radialGradient id="paint45_radial_2199_15144" cx="0" cy="0" r="1" gradientUnits="userSpaceOnUse" gradientTransform="translate(1453.54 447.581) rotate(89.8823) scale(5.64915 5.64399)">
<stop stop-color="white"/>
<stop offset="0.24" stop-color="#1D1D1E"/>
</radialGradient>
<radialGradient id="paint46_radial_2199_15144" cx="0" cy="0" r="1" gradientUnits="userSpaceOnUse" gradientTransform="translate(1453.54 267.302) rotate(89.8823) scale(5.64915 5.64399)">
<stop stop-color="white"/>
<stop offset="0.24" stop-color="#1D1D1E"/>
</radialGradient>
<radialGradient id="paint47_radial_2199_15144" cx="0" cy="0" r="1" gradientUnits="userSpaceOnUse" gradientTransform="translate(1453.54 87.0087) rotate(89.8823) scale(5.64915 5.64399)">
<stop stop-color="white"/>
<stop offset="0.24" stop-color="#1D1D1E"/>
</radialGradient>
<clipPath id="clip0_2199_15144">
<rect width="1512" height="447" fill="white"/>
</clipPath>
</defs>
</svg>
