<svg width="18" height="19" viewBox="0 0 18 19" fill="none" xmlns="http://www.w3.org/2000/svg">
<path d="M10.3242 4.61426H8.19303C7.83097 4.61426 7.54297 4.90226 7.54297 5.26432V7.39552C7.54297 7.75757 7.83097 8.04557 8.19303 8.04557H10.3242C10.6863 8.04557 10.9743 7.75757 10.9743 7.39552V5.26432C10.9743 4.90226 10.678 4.61426 10.3242 4.61426Z" fill="#575A5D"/>
<path d="M8.19303 14.9001H10.3242C10.6863 14.9001 10.9743 14.6121 10.9743 14.25V12.1188C10.9743 11.7567 10.6863 11.4688 10.3242 11.4688H8.19303C7.83097 11.4688 7.54297 11.7567 7.54297 12.1188V14.25C7.54297 14.6038 7.8392 14.9001 8.19303 14.9001Z" fill="#575A5D"/>
<path d="M10.9766 8.68717V10.8184C10.9766 11.1804 11.2646 11.4684 11.6266 11.4684H13.7578C14.1199 11.4684 14.4079 11.1804 14.4079 10.8184V8.68717C14.4079 8.32511 14.1199 8.03711 13.7578 8.03711H11.6266C11.2646 8.03711 10.9766 8.33334 10.9766 8.68717Z" fill="#575A5D"/>
<path d="M4.11328 8.68717V10.8184C4.11328 11.1804 4.40128 11.4684 4.76334 11.4684H6.89454C7.2566 11.4684 7.5446 11.1804 7.5446 10.8184V8.68717C7.5446 8.32511 7.2566 8.03711 6.89454 8.03711H4.76334C4.40951 8.03711 4.11328 8.33334 4.11328 8.68717Z" fill="#575A5D"/>
</svg>
