<svg width="1512" height="241" viewBox="0 0 1512 241" fill="none" xmlns="http://www.w3.org/2000/svg">
<g clip-path="url(#clip0_2265_27997)">
<path d="M52.2044 0H40.3419C38.9713 0 37.9495 0.56175 36.9776 1.54793L28.8409 9.69955V0H17.1031C15.7574 0 14.4615 0.5243 13.502 1.47303L2.59905 12.4084C1.61467 13.3696 1.06641 14.6929 1.06641 16.0785V27.8253H10.7482L2.59905 35.9894C1.61467 36.9507 1.06641 38.2739 1.06641 39.6595V51.2316V249.692H14.0876V50.9445V13.0326H25.5389L38.0991 13.0451H252.856V0H52.2044Z" fill="white" fill-opacity="0.02"/>
<path d="M35.046 17.9637C33.7002 17.9637 32.4043 18.488 31.4449 19.4367L20.517 30.3846C19.5326 31.3458 18.9844 32.669 18.9844 34.0547V51.2317V249.692H32.0056V50.9446V30.9838H52.1916L252.818 30.9963V17.9512H35.046V17.9637Z" fill="white" fill-opacity="0.02"/>
<path d="M303.971 0H292.108C290.738 0 289.716 0.56175 288.744 1.54793L280.607 9.69955V0H268.869C267.524 0 266.228 0.5243 265.268 1.47303L254.353 12.4084C253.369 13.3696 252.82 14.6929 252.82 16.0785V27.8253H262.502L254.353 35.9894C253.369 36.9507 252.82 38.2739 252.82 39.6595V51.2316V249.692H265.842V50.9445V13.0326H277.293L289.853 13.0451H504.61V0H303.983H303.971Z" fill="white" fill-opacity="0.02"/>
<path d="M286.812 17.9637C285.466 17.9637 284.17 18.488 283.211 19.4367L272.283 30.3846C271.298 31.3458 270.75 32.669 270.75 34.0547V51.2317V249.692H283.771V50.9446V30.9838H303.957L504.584 30.9963V17.9512H286.799L286.812 17.9637Z" fill="white" fill-opacity="0.02"/>
<path d="M555.736 0H543.874C542.503 0 541.482 0.56175 540.51 1.54793L532.373 9.69955V0H520.635C519.289 0 517.993 0.5243 517.034 1.47303L506.119 12.4084C505.134 13.3696 504.586 14.6929 504.586 16.0785V27.8253H514.268L506.119 35.9894C505.134 36.9507 504.586 38.2739 504.586 39.6595V51.2316V249.692H517.607V50.9445V13.0326H529.058L541.619 13.0451H756.375V0H555.749H555.736Z" fill="white" fill-opacity="0.02"/>
<path d="M538.577 17.9637C537.231 17.9637 535.936 18.488 534.976 19.4367L524.048 30.3846C523.064 31.3458 522.516 32.669 522.516 34.0547V51.2317V249.692H535.537V50.9446V30.9838H555.723L756.35 30.9963V17.9512H538.565L538.577 17.9637Z" fill="white" fill-opacity="0.02"/>
<path d="M807.498 0H795.636C794.265 0 793.243 0.56175 792.271 1.54793L784.135 9.69955V0H772.397C771.051 0 769.755 0.5243 768.796 1.47303L757.88 12.4084C756.896 13.3696 756.348 14.6929 756.348 16.0785V27.8253H766.029L757.88 35.9894C756.896 36.9507 756.348 38.2739 756.348 39.6595V51.2316V249.692H769.369V50.9445V13.0326H780.82L793.38 13.0451H1008.14V0H807.511H807.498Z" fill="white" fill-opacity="0.02"/>
<path d="M790.339 17.9637C788.993 17.9637 787.697 18.488 786.738 19.4367L775.81 30.3846C774.826 31.3458 774.277 32.669 774.277 34.0547V51.2317V249.692H787.299V50.9446V30.9838H807.485L1008.11 30.9963V17.9512H790.326L790.339 17.9637Z" fill="white" fill-opacity="0.02"/>
<path d="M1059.25 0H1047.39C1046.02 0 1045 0.56175 1044.03 1.54793L1035.89 9.69955V0H1024.15C1022.8 0 1021.51 0.5243 1020.55 1.47303L1009.63 12.4084C1008.65 13.3696 1008.1 14.6929 1008.1 16.0785V27.8253H1017.78L1009.63 35.9894C1008.65 36.9507 1008.1 38.2739 1008.1 39.6595V51.2316V249.692H1021.12V50.9445V13.0326H1032.57L1045.13 13.0451H1259.89V0H1059.26H1059.25Z" fill="white" fill-opacity="0.02"/>
<path d="M1042.11 17.9637C1040.76 17.9637 1039.47 18.488 1038.51 19.4367L1027.58 30.3846C1026.6 31.3458 1026.05 32.669 1026.05 34.0547V51.2317V249.692H1039.07V50.9446V30.9838H1059.25L1259.88 30.9963V17.9512H1042.1L1042.11 17.9637Z" fill="white" fill-opacity="0.02"/>
<path d="M1311.02 0H1299.16C1297.78 0 1296.76 0.56175 1295.79 1.54793L1287.65 9.69955V0H1275.92C1274.57 0 1273.27 0.5243 1272.32 1.47303L1261.4 12.4084C1260.42 13.3696 1259.87 14.6929 1259.87 16.0785V27.8253H1269.55L1261.4 35.9894C1260.42 36.9507 1259.87 38.2739 1259.87 39.6595V51.2316V249.692H1272.89V50.9445V13.0326H1284.34L1296.9 13.0451H1511.66V0H1311.03H1311.02Z" fill="white" fill-opacity="0.02"/>
<path d="M1293.87 17.9637C1292.53 17.9637 1291.23 18.488 1290.27 19.4367L1279.35 30.3846C1278.36 31.3458 1277.81 32.669 1277.81 34.0547V51.2317V249.692H1290.83V50.9446V30.9838H1311.02L1511.65 30.9963V17.9512H1293.86L1293.87 17.9637Z" fill="white" fill-opacity="0.02"/>
</g>
<defs>
<clipPath id="clip0_2265_27997">
<rect width="1511.91" height="749" fill="white"/>
</clipPath>
</defs>
</svg>
